HIERARCHY
ROOT Hips
{
	OFFSET -0.001795 -0.223333 0.028219
	CHANNELS 6 Xposition Yposition Zposition Zrotation Yrotation Xrotation 
	JOINT LeftUpLeg
	{
		OFFSET 0.069520 -0.091406 -0.006815
		CHANNELS 3 Zrotation Yrotation Xrotation
		JOINT LeftLeg
		{
			OFFSET 0.034277 -0.375199 -0.004496
			CHANNELS 3 Zrotation Yrotation Xrotation
			JOINT LeftFoot
			{
				OFFSET -0.013596 -0.397961 -0.043693
				CHANNELS 3 Zrotation Yrotation Xrotation
				JOINT LeftToe
				{
					OFFSET 0.026358 -0.055791 0.119288
					CHANNELS 3 Zrotation Yrotation Xrotation
					End Site
					{
						OFFSET 0.000000 0.000000 0.000000
					}
				}
			}
		}
	}
	JOINT RightUpLeg
	{
		OFFSET -0.067670 -0.090522 -0.004320
		CHANNELS 3 Zrotation Yrotation Xrotation
		JOINT RightLeg
		{
			OFFSET -0.038290 -0.382569 -0.008850
			CHANNELS 3 Zrotation Yrotation Xrotation
			JOINT RightFoot
			{
				OFFSET 0.015774 -0.398415 -0.042312
				CHANNELS 3 Zrotation Yrotation Xrotation
				JOINT RightToe
				{
					OFFSET -0.025372 -0.048144 0.123348
					CHANNELS 3 Zrotation Yrotation Xrotation
					End Site
					{
						OFFSET 0.000000 0.000000 0.000000
					}
				}
			}
		}
	}
	JOINT Spine
	{
		OFFSET -0.002533 0.108963 -0.026696
		CHANNELS 3 Zrotation Yrotation Xrotation
		JOINT Spine1
		{
			OFFSET 0.005487 0.135180 0.001092
			CHANNELS 3 Zrotation Yrotation Xrotation
			JOINT Spine2
			{
				OFFSET 0.001457 0.052922 0.025425
				CHANNELS 3 Zrotation Yrotation Xrotation
				JOINT Neck
				{
					OFFSET -0.002778 0.213870 -0.042857
					CHANNELS 3 Zrotation Yrotation Xrotation
					JOINT Head
					{
						OFFSET 0.005152 0.064970 0.051349
						CHANNELS 3 Zrotation Yrotation Xrotation
						End Site
						{
							OFFSET 0.000000 0.000000 0.000000
						}
					}
				}
				JOINT LeftShoulder
				{
					OFFSET 0.078845 0.121749 -0.034090
					CHANNELS 3 Zrotation Yrotation Xrotation
					JOINT LeftArm
					{
						OFFSET 0.090977 0.030469 -0.008868
						CHANNELS 3 Zrotation Yrotation Xrotation
						JOINT LeftForeArm
						{
							OFFSET 0.259612 -0.012772 -0.027456
							CHANNELS 3 Zrotation Yrotation Xrotation
							JOINT LeftHand
							{
								OFFSET 0.249234 0.008986 -0.001171
								CHANNELS 3 Zrotation Yrotation Xrotation
								End Site
								{
									OFFSET 0.000000 0.000000 0.000000
								}
							}
						}
					}
				}
				JOINT RightShoulder
				{
					OFFSET -0.081759 0.118833 -0.038615
					CHANNELS 3 Zrotation Yrotation Xrotation
					JOINT RightArm
					{
						OFFSET -0.096012 0.032551 -0.009143
						CHANNELS 3 Zrotation Yrotation Xrotation
						JOINT RightForeArm
						{
							OFFSET -0.253742 -0.013329 -0.021401
							CHANNELS 3 Zrotation Yrotation Xrotation
							JOINT RightHand
							{
								OFFSET -0.255298 0.007772 -0.005559
								CHANNELS 3 Zrotation Yrotation Xrotation
								End Site
								{
									OFFSET 0.000000 0.000000 0.000000
								}
							}
						}
					}
				}
			}
		}
	}
}
MOTION
Frames: 8
Frame Time: 0.050000
-0.255069 0.955768 -0.025436 -3.905419 -10.617219 3.635665 12.290908 0.262612 -6.754538 -3.058142 0.401902 0.100034 10.045056 19.210662 21.693104 0.000000 0.000000 0.000000 -14.342486 0.699995 -11.338787 3.810563 -0.264462 3.504832 -2.783165 -14.386652 25.399402 0.000000 0.000000 0.000000 -3.132096 0.555811 30.274375 -4.268094 1.462239 -28.572804 -3.704081 7.510933 26.485436 15.815587 -3.549984 -42.985188 0.000000 0.000000 0.000000 -11.537323 -21.433728 9.053441 -31.774590 -31.288873 2.058844 -0.539598 -35.573475 1.535167 0.000000 0.000000 0.000000 28.692584 2.648070 0.661765 52.997093 23.465864 2.538622 10.378813 42.947485 6.676566 0.000000 0.000000 0.000000 
-0.272833 0.953330 -0.024308 -3.232637 -10.174146 3.399506 12.677777 0.268289 -6.364258 -2.612579 0.341832 -0.331486 9.636288 18.709370 22.181063 0.000000 0.000000 0.000000 -14.582591 0.674171 -10.734594 3.702040 -0.258856 3.451713 -2.615076 -13.798867 23.808142 0.000000 0.000000 0.000000 -2.598436 0.362114 30.277119 -4.388601 1.491192 -28.515639 -4.060683 8.450160 26.373037 16.041160 -3.436611 -43.294100 0.000000 0.000000 0.000000 -10.844603 -20.924002 8.503481 -33.407776 -31.370712 2.330575 -1.390891 -36.565674 1.810676 0.000000 0.000000 0.000000 28.857588 3.017325 1.366532 53.038244 24.428895 2.889570 8.340078 43.497120 6.113276 0.000000 0.000000 0.000000 
-0.293451 0.950476 -0.023292 -2.493841 -9.630044 3.120584 13.245598 0.291786 -6.272717 -2.109677 0.272944 -0.176001 8.877799 17.775438 22.333480 0.000000 0.000000 0.000000 -14.850327 0.648059 -9.996529 3.907916 -0.285291 3.603870 -2.542427 -13.258962 22.011786 0.000000 0.000000 0.000000 -2.276525 0.215319 29.971491 -4.426668 1.503071 -27.825189 -4.333709 9.306610 25.902151 15.822886 -3.280515 -42.874232 0.000000 0.000000 0.000000 -10.778578 -20.532828 8.103237 -34.497617 -30.877887 2.392112 -2.604882 -38.326924 2.255812 0.000000 0.000000 0.000000 29.271823 3.395081 2.051981 52.334062 25.023663 2.998793 7.110504 44.193312 5.830937 0.000000 0.000000 0.000000 
-0.315919 0.947844 -0.022451 -1.639141 -8.913430 2.591689 13.446439 0.280422 -5.974613 -0.965074 0.122711 -0.024647 7.785878 16.444886 22.984750 0.000000 0.000000 0.000000 -14.696610 0.614391 -9.133807 4.019361 -0.299936 4.086956 -2.674145 -12.813185 19.362692 0.000000 0.000000 0.000000 -1.444862 -0.088413 29.759126 -4.548862 1.537489 -27.364165 -4.641337 10.477123 25.822071 16.343289 -3.254689 -43.249520 0.000000 0.000000 0.000000 -10.903365 -20.860517 7.981150 -35.496056 -30.636048 2.479677 -3.792305 -39.172975 2.616009 0.000000 0.000000 0.000000 29.475220 3.566518 2.780417 51.494543 25.738691 3.039585 5.498626 43.371355 5.180980 0.000000 0.000000 0.000000 
-0.340350 0.945329 -0.022237 -0.958707 -8.167534 1.916937 14.278164 0.313422 -5.576669 -0.078392 0.006127 0.145217 6.757705 15.277315 24.267533 0.000000 0.000000 0.000000 -14.831774 0.575891 -8.139927 4.507113 -0.364848 4.421989 -2.558392 -12.113008 17.501869 0.000000 0.000000 0.000000 -1.008982 -0.270268 29.910381 -4.485982 1.538168 -26.680237 -4.726768 10.774661 25.562982 16.547742 -3.294590 -43.109553 0.000000 0.000000 0.000000 -11.912754 -20.414783 7.720945 -35.960251 -29.781126 2.346296 -3.363196 -39.888187 2.459711 0.000000 0.000000 0.000000 29.191918 3.743883 3.142332 50.711358 26.789051 3.361854 4.411098 42.309000 4.609049 0.000000 0.000000 0.000000 
-0.366961 0.942859 -0.023207 -0.435145 -7.050731 1.318858 15.519838 0.352460 -5.306067 0.371239 -0.041322 -0.097758 5.439027 13.895187 25.752147 0.000000 0.000000 0.000000 -14.253331 0.523432 -7.322714 4.607710 -0.385110 5.475004 -2.729997 -11.532837 14.396626 0.000000 0.000000 0.000000 -0.061113 -0.631537 30.067011 -4.401450 1.536886 -26.475865 -4.908585 10.982288 25.683796 17.629382 -3.814553 -42.483280 0.000000 0.000000 0.000000 -12.781899 -20.498248 7.662567 -36.340677 -28.171718 1.969117 -2.980101 -39.286965 2.221884 0.000000 0.000000 0.000000 29.291953 3.894672 3.564429 49.197560 26.926919 3.065838 3.850284 40.768839 4.184140 0.000000 0.000000 0.000000 
-0.395294 0.941800 -0.026065 -0.148289 -5.950124 1.440455 16.683154 0.356227 -5.213325 0.982110 -0.072829 -1.075584 4.396596 12.979073 27.698728 0.000000 0.000000 0.000000 -13.669764 0.496803 -6.498342 5.275496 -0.492604 4.232879 -3.081665 -11.693690 13.040578 0.000000 0.000000 0.000000 1.113140 -1.051712 29.840890 -4.625390 1.602873 -25.777551 -5.007305 11.040013 25.288985 17.470471 -3.570318 -42.837915 0.000000 0.000000 0.000000 -13.231678 -20.338631 7.466854 -36.843982 -26.378228 1.598875 -0.999945 -38.137257 1.426037 0.000000 0.000000 0.000000 28.830949 3.380376 3.454954 49.387677 27.013699 3.121980 3.265316 39.009832 3.809040 0.000000 0.000000 0.000000 
-0.423459 0.941351 -0.031442 0.308404 -4.545079 1.412464 17.418245 0.333854 -5.456239 1.499845 -0.092604 -1.776937 3.811428 12.682419 29.188442 0.000000 0.000000 0.000000 -11.999845 0.455034 -5.968730 5.256033 -0.510542 4.120126 -4.086335 -12.856135 10.622619 0.000000 0.000000 0.000000 2.276841 -1.515576 30.555182 -4.677569 1.629532 -26.730379 -4.793898 11.289839 26.450043 19.056603 -4.220628 -42.785587 0.000000 0.000000 0.000000 -14.519778 -20.562808 7.461903 -36.515506 -24.887887 1.146225 -0.043443 -36.564937 1.001618 0.000000 0.000000 0.000000 28.647951 3.050301 3.620738 47.887019 27.656210 2.960536 2.043239 37.626080 3.264273 0.000000 0.000000 0.000000 
